<svg width="1280" height="1280" viewBox="0 0 1280 1280" fill="none" xmlns="http://www.w3.org/2000/svg">
<g clip-path="url(#clip0_0_2)">
<path fill-rule="evenodd" clip-rule="evenodd" d="M439 868.5L664 763.5L752.5 951.5L596.7 975.5L439 868.5Z" fill="#E6F506"/>
<path fill-rule="evenodd" clip-rule="evenodd" d="M187 1027C187 1027 216.32 1011.52 239 1025C261.68 1038.48 354.034 1110.66 383 1146C411.966 1181.34 443 1210 443 1210V922.5L187 1027Z" fill="#4BED0C" stroke="#309022" stroke-width="9"/>
<g filter="url(#filter0_d_0_2)">
<rect x="640" y="14.6" width="292" height="163" rx="13" fill="url(#paint0_radial_0_2)"/>
</g>
<path d="M867 156.602L923.702 22.1438L1104.19 182.954C1102.27 183.022 1100.13 183.094 1097.79 183.167C1086.88 183.508 1071.66 183.867 1054.43 183.941C1019.9 184.087 977.552 183.083 945.633 178.545C913.655 173.998 893.102 167.9 880.644 163.019C874.417 160.58 870.216 158.445 867.622 156.963C867.403 156.838 867.196 156.717 867 156.602ZM864.217 154.791L864.222 154.795C864.216 154.79 864.214 154.789 864.217 154.791Z" fill="url(#paint1_radial_0_2)" stroke="#79D1A9" stroke-width="9"/>
<path fill-rule="evenodd" clip-rule="evenodd" d="M1213.62 279L1280 350.418L1280 400.8L1104.02 531.437L1032.6 460.019L1213.62 279Z" fill="url(#paint2_radial_0_2)"/>
<path fill-rule="evenodd" clip-rule="evenodd" d="M1075.6 451L1107 481.696L1075.6 506L1041.5 563L1007.5 720.5L912.6 579L1075.6 451Z" fill="url(#paint3_radial_0_2)"/>
<path fill-rule="evenodd" clip-rule="evenodd" d="M1110.5 185.5C1084.46 183.369 861.4 176.816 861.4 176.816L878.969 195.236C903.767 216.42 944.891 253.365 978.368 292.278C982.618 297.218 986.761 302.086 990.785 306.86L1072.5 296.831L1135 217C1135 217 1136.54 187.631 1110.5 185.5Z" fill="url(#paint4_linear_0_2)"/>
<path d="M369.849 33.5162L367.319 33.301L365.827 35.3549L180.087 291.004L175.399 297.457L183.346 298.133L471.378 322.633L473.908 322.849L475.4 320.795L661.141 65.1451L665.829 58.6923L657.881 58.0163L369.849 33.5162Z" fill="url(#paint5_linear_0_2)"/>
<path d="M369.849 33.5162L367.319 33.301L365.827 35.3549L180.087 291.004L175.399 297.457L183.346 298.133L471.378 322.633L473.908 322.849L475.4 320.795L661.141 65.1451L665.829 58.6923L657.881 58.0163L369.849 33.5162Z" stroke="#000135" stroke-width="9"/>
<path d="M369.849 33.5162L367.319 33.301L365.827 35.3549L180.087 291.004L175.399 297.457L183.346 298.133L471.378 322.633L473.908 322.849L475.4 320.795L661.141 65.1451L665.829 58.6923L657.881 58.0163L369.849 33.5162Z" stroke="#06017F" stroke-width="9"/>
<path d="M489.263 596.896L487.585 592.72L480.987 595.371L486.207 600.199L675.4 775.204L680.294 779.73L682.662 773.499L678.456 771.9C682.662 773.499 682.663 773.499 682.663 773.498L682.664 773.495L682.668 773.483L682.685 773.44L682.748 773.272C682.804 773.124 682.887 772.905 682.995 772.617C683.211 772.041 683.529 771.189 683.938 770.082C684.757 767.868 685.942 764.629 687.411 760.522C690.35 752.31 694.426 740.62 698.985 726.699C708.096 698.875 719.16 662.055 726.899 626.228C734.581 590.666 743.947 550.887 751.395 519.984C755.119 504.536 758.362 491.312 760.674 481.951C761.83 477.27 762.753 473.555 763.387 471.011C763.704 469.739 763.948 468.76 764.114 468.099L764.302 467.35L764.349 467.16L764.361 467.112L764.364 467.101L764.365 467.098C764.365 467.097 764.365 467.097 760.001 466.001L764.365 467.097L755.941 464.171C755.898 464.151 755.899 464.15 755.899 464.149L755.901 464.144L755.905 464.135L755.911 464.123C755.914 464.117 755.914 464.116 755.912 464.12C755.909 464.127 755.897 464.153 755.874 464.197C755.829 464.286 755.745 464.447 755.615 464.677C755.355 465.137 754.911 465.872 754.233 466.845C752.878 468.788 750.582 471.691 746.936 475.256C739.646 482.381 726.922 492.188 705.47 502.255C683.744 512.449 629.34 535.041 580.228 555.138C555.702 565.174 532.541 574.57 515.51 581.457C506.995 584.9 500.014 587.716 495.161 589.672C492.734 590.649 490.84 591.411 489.553 591.929L488.086 592.519L487.711 592.67L487.617 592.708L487.593 592.717L487.587 592.719C487.586 592.72 487.585 592.72 489.263 596.896Z" fill="url(#paint6_radial_0_2)" stroke="black" stroke-width="9"/>
<path d="M581.136 56.5288L579.865 57.5781L579.572 59.2008L487.693 568.324L487.621 568.72V569.123L487.621 586.6V591.062L492.083 591.1L492.121 586.6C492.083 591.1 492.084 591.1 492.084 591.1H492.086L492.092 591.1L492.111 591.1L492.175 591.1C492.231 591.101 492.31 591.101 492.412 591.101C492.616 591.101 492.912 591.1 493.288 591.097C494.04 591.09 495.116 591.073 496.431 591.033C499.056 590.953 502.658 590.778 506.55 590.398C510.425 590.02 514.68 589.429 518.579 588.495C522.367 587.587 526.302 586.247 529.179 584.116L526.551 580.569L529.179 584.116C537.149 578.212 556.05 569.129 585.623 557.697C600.655 551.886 614.863 544.524 625.28 538.64C630.498 535.693 634.785 533.105 637.773 531.25C639.268 530.323 640.439 529.578 641.24 529.062C641.641 528.804 641.949 528.604 642.159 528.466C642.188 528.447 642.215 528.429 642.24 528.413C642.284 528.392 642.333 528.368 642.387 528.341C642.649 528.212 643.041 528.021 643.555 527.771C644.581 527.273 646.093 526.543 648.025 525.625C651.89 523.788 657.433 521.196 664.136 518.183C677.551 512.151 695.567 504.449 714.039 497.729C733.119 490.788 743.365 483.284 749.053 476.789C751.908 473.53 753.546 470.601 754.573 468.267C755.079 467.117 755.423 466.14 755.663 465.453C755.868 464.867 755.94 464.687 755.935 464.684C755.935 464.684 755.934 464.685 755.933 464.686C756.142 464.308 756.301 463.898 756.313 463.868C756.403 463.647 756.514 463.365 756.641 463.035C756.896 462.371 757.248 461.438 757.684 460.265C758.559 457.914 759.797 454.545 761.343 450.311C764.436 441.841 768.773 429.876 773.936 415.592C784.261 387.022 797.892 349.157 811.477 311.369C825.062 273.581 838.602 235.869 848.745 207.603C853.817 193.47 858.04 181.699 860.995 173.462C862.472 169.343 863.632 166.107 864.423 163.901L865.326 161.383L865.558 160.737L865.617 160.574L865.631 160.533L865.635 160.522C865.636 160.52 865.636 160.519 861.4 159L865.636 160.519L866.833 157.181L863.868 155.237L642.468 10.037L639.695 8.21823L637.136 10.3288L581.136 56.5288Z" fill="url(#paint7_linear_0_2)"/>
<path d="M581.136 56.5288L579.865 57.5781L579.572 59.2008L487.693 568.324L487.621 568.72V569.123L487.621 586.6V591.062L492.083 591.1L492.121 586.6C492.083 591.1 492.084 591.1 492.084 591.1H492.086L492.092 591.1L492.111 591.1L492.175 591.1C492.231 591.101 492.31 591.101 492.412 591.101C492.616 591.101 492.912 591.1 493.288 591.097C494.04 591.09 495.116 591.073 496.431 591.033C499.056 590.953 502.658 590.778 506.55 590.398C510.425 590.02 514.68 589.429 518.579 588.495C522.367 587.587 526.302 586.247 529.179 584.116L526.551 580.569L529.179 584.116C537.149 578.212 556.05 569.129 585.623 557.697C600.655 551.886 614.863 544.524 625.28 538.64C630.498 535.693 634.785 533.105 637.773 531.25C639.268 530.323 640.439 529.578 641.24 529.062C641.641 528.804 641.949 528.604 642.159 528.466C642.188 528.447 642.215 528.429 642.24 528.413C642.284 528.392 642.333 528.368 642.387 528.341C642.649 528.212 643.041 528.021 643.555 527.771C644.581 527.273 646.093 526.543 648.025 525.625C651.89 523.788 657.433 521.196 664.136 518.183C677.551 512.151 695.567 504.449 714.039 497.729C733.119 490.788 743.365 483.284 749.053 476.789C751.908 473.53 753.546 470.601 754.573 468.267C755.079 467.117 755.423 466.14 755.663 465.453C755.868 464.867 755.94 464.687 755.935 464.684C755.935 464.684 755.934 464.685 755.933 464.686C756.142 464.308 756.301 463.898 756.313 463.868C756.403 463.647 756.514 463.365 756.641 463.035C756.896 462.371 757.248 461.438 757.684 460.265C758.559 457.914 759.797 454.545 761.343 450.311C764.436 441.841 768.773 429.876 773.936 415.592C784.261 387.022 797.892 349.157 811.477 311.369C825.062 273.581 838.602 235.869 848.745 207.603C853.817 193.47 858.04 181.699 860.995 173.462C862.472 169.343 863.632 166.107 864.423 163.901L865.326 161.383L865.558 160.737L865.617 160.574L865.631 160.533L865.635 160.522C865.636 160.52 865.636 160.519 861.4 159L865.636 160.519L866.833 157.181L863.868 155.237L642.468 10.037L639.695 8.21823L637.136 10.3288L581.136 56.5288Z" stroke="black" stroke-width="9"/>
<path d="M581.136 56.5288L579.865 57.5781L579.572 59.2008L487.693 568.324L487.621 568.72V569.123L487.621 586.6V591.062L492.083 591.1L492.121 586.6C492.083 591.1 492.084 591.1 492.084 591.1H492.086L492.092 591.1L492.111 591.1L492.175 591.1C492.231 591.101 492.31 591.101 492.412 591.101C492.616 591.101 492.912 591.1 493.288 591.097C494.04 591.09 495.116 591.073 496.431 591.033C499.056 590.953 502.658 590.778 506.55 590.398C510.425 590.02 514.68 589.429 518.579 588.495C522.367 587.587 526.302 586.247 529.179 584.116L526.551 580.569L529.179 584.116C537.149 578.212 556.05 569.129 585.623 557.697C600.655 551.886 614.863 544.524 625.28 538.64C630.498 535.693 634.785 533.105 637.773 531.25C639.268 530.323 640.439 529.578 641.24 529.062C641.641 528.804 641.949 528.604 642.159 528.466C642.188 528.447 642.215 528.429 642.24 528.413C642.284 528.392 642.333 528.368 642.387 528.341C642.649 528.212 643.041 528.021 643.555 527.771C644.581 527.273 646.093 526.543 648.025 525.625C651.89 523.788 657.433 521.196 664.136 518.183C677.551 512.151 695.567 504.449 714.039 497.729C733.119 490.788 743.365 483.284 749.053 476.789C751.908 473.53 753.546 470.601 754.573 468.267C755.079 467.117 755.423 466.14 755.663 465.453C755.868 464.867 755.94 464.687 755.935 464.684C755.935 464.684 755.934 464.685 755.933 464.686C756.142 464.308 756.301 463.898 756.313 463.868C756.403 463.647 756.514 463.365 756.641 463.035C756.896 462.371 757.248 461.438 757.684 460.265C758.559 457.914 759.797 454.545 761.343 450.311C764.436 441.841 768.773 429.876 773.936 415.592C784.261 387.022 797.892 349.157 811.477 311.369C825.062 273.581 838.602 235.869 848.745 207.603C853.817 193.47 858.04 181.699 860.995 173.462C862.472 169.343 863.632 166.107 864.423 163.901L865.326 161.383L865.558 160.737L865.617 160.574L865.631 160.533L865.635 160.522C865.636 160.52 865.636 160.519 861.4 159L865.636 160.519L866.833 157.181L863.868 155.237L642.468 10.037L639.695 8.21823L637.136 10.3288L581.136 56.5288Z" stroke="url(#paint8_linear_0_2)" stroke-width="9"/>
<rect x="620.1" y="13.8" width="40" height="265" fill="url(#paint9_linear_0_2)"/>
<path d="M868 157C868 157 877.371 169.371 951 177.6C1024.63 185.829 1073.79 182.35 1092 183.5C1110.21 184.65 1131.5 189.165 1131.5 218" stroke="url(#paint10_linear_0_2)" stroke-width="9"/>
<path fill-rule="evenodd" clip-rule="evenodd" d="M991 303.5C991 303.5 1051.08 286.724 1074 264C1096.92 241.276 1139.5 204 1139.5 204L1074 427V450L1037.5 477.5C1037.5 477.5 1004 459.375 947 443.5C890 427.625 809.5 414 809.5 414L991 303.5Z" fill="#F0293E"/>
<g filter="url(#filter1_d_0_2)">
<ellipse cx="933.318" cy="501.9" rx="148.051" ry="101.1" fill="url(#paint11_radial_0_2)"/>
</g>
<path fill-rule="evenodd" clip-rule="evenodd" d="M786.4 376.5L1081.4 833L674.4 768L786.4 376.5Z" fill="#F32E25"/>
<rect x="1005.1" y="534.6" width="26" height="240.6" fill="url(#paint12_linear_0_2)"/>
<path d="M614.53 249.518C614.854 252.309 616.107 255.256 617.702 258.106C619.337 261.029 621.536 264.205 624.108 267.519C629.252 274.151 636.134 281.653 643.647 289.264C658.69 304.5 676.597 320.503 689.037 331.387C695.167 336.75 703.068 344.222 711.729 352.427L712.325 352.991C720.788 361.006 729.911 369.648 738.633 377.505C747.534 385.525 756.147 392.847 763.301 397.887C766.863 400.397 770.235 402.465 773.212 403.754C774.704 404.399 776.244 404.915 777.76 405.146C779.26 405.376 781.031 405.371 782.749 404.646C784.47 403.921 785.811 402.55 786.784 401.368C787.841 400.084 788.889 398.488 789.921 396.708C791.99 393.139 794.24 388.396 796.587 382.895C801.292 371.866 806.583 357.324 811.816 341.939C822.291 311.144 832.656 276.619 837.813 259.283C840.609 249.888 844.287 238.693 848.079 227.152C851.337 217.237 854.678 207.067 857.616 197.564C860.738 187.465 863.368 178.213 864.758 171.307C865.444 167.899 865.887 164.783 865.851 162.327C865.833 161.126 865.7 159.725 865.199 158.43C864.673 157.07 863.493 155.286 861.181 154.658C859.813 154.286 857.959 154.08 855.98 153.955C853.912 153.824 851.401 153.764 848.566 153.777C842.889 153.801 835.763 154.114 828.001 154.763C812.532 156.055 794.216 158.704 779.671 163.201C765.27 167.653 724.099 184.298 686.855 201.687C668.21 210.391 650.389 219.357 637.295 227.15C630.771 231.034 625.257 234.722 621.377 238.022C619.448 239.664 617.759 241.346 616.552 243.04C615.423 244.623 614.226 246.898 614.53 249.518Z" fill="#24EEFA"/>
<path d="M614.53 249.518C614.854 252.309 616.107 255.256 617.702 258.106C619.337 261.029 621.536 264.205 624.108 267.519C629.252 274.151 636.134 281.653 643.647 289.264C658.69 304.5 676.597 320.503 689.037 331.387C695.167 336.75 703.068 344.222 711.729 352.427L712.325 352.991C720.788 361.006 729.911 369.648 738.633 377.505C747.534 385.525 756.147 392.847 763.301 397.887C766.863 400.397 770.235 402.465 773.212 403.754C774.704 404.399 776.244 404.915 777.76 405.146C779.26 405.376 781.031 405.371 782.749 404.646C784.47 403.921 785.811 402.55 786.784 401.368C787.841 400.084 788.889 398.488 789.921 396.708C791.99 393.139 794.24 388.396 796.587 382.895C801.292 371.866 806.583 357.324 811.816 341.939C822.291 311.144 832.656 276.619 837.813 259.283C840.609 249.888 844.287 238.693 848.079 227.152C851.337 217.237 854.678 207.067 857.616 197.564C860.738 187.465 863.368 178.213 864.758 171.307C865.444 167.899 865.887 164.783 865.851 162.327C865.833 161.126 865.7 159.725 865.199 158.43C864.673 157.07 863.493 155.286 861.181 154.658C859.813 154.286 857.959 154.08 855.98 153.955C853.912 153.824 851.401 153.764 848.566 153.777C842.889 153.801 835.763 154.114 828.001 154.763C812.532 156.055 794.216 158.704 779.671 163.201C765.27 167.653 724.099 184.298 686.855 201.687C668.21 210.391 650.389 219.357 637.295 227.15C630.771 231.034 625.257 234.722 621.377 238.022C619.448 239.664 617.759 241.346 616.552 243.04C615.423 244.623 614.226 246.898 614.53 249.518Z" stroke="black" stroke-width="9"/>
<path d="M614.53 249.518C614.854 252.309 616.107 255.256 617.702 258.106C619.337 261.029 621.536 264.205 624.108 267.519C629.252 274.151 636.134 281.653 643.647 289.264C658.69 304.5 676.597 320.503 689.037 331.387C695.167 336.75 703.068 344.222 711.729 352.427L712.325 352.991C720.788 361.006 729.911 369.648 738.633 377.505C747.534 385.525 756.147 392.847 763.301 397.887C766.863 400.397 770.235 402.465 773.212 403.754C774.704 404.399 776.244 404.915 777.76 405.146C779.26 405.376 781.031 405.371 782.749 404.646C784.47 403.921 785.811 402.55 786.784 401.368C787.841 400.084 788.889 398.488 789.921 396.708C791.99 393.139 794.24 388.396 796.587 382.895C801.292 371.866 806.583 357.324 811.816 341.939C822.291 311.144 832.656 276.619 837.813 259.283C840.609 249.888 844.287 238.693 848.079 227.152C851.337 217.237 854.678 207.067 857.616 197.564C860.738 187.465 863.368 178.213 864.758 171.307C865.444 167.899 865.887 164.783 865.851 162.327C865.833 161.126 865.7 159.725 865.199 158.43C864.673 157.07 863.493 155.286 861.181 154.658C859.813 154.286 857.959 154.08 855.98 153.955C853.912 153.824 851.401 153.764 848.566 153.777C842.889 153.801 835.763 154.114 828.001 154.763C812.532 156.055 794.216 158.704 779.671 163.201C765.27 167.653 724.099 184.298 686.855 201.687C668.21 210.391 650.389 219.357 637.295 227.15C630.771 231.034 625.257 234.722 621.377 238.022C619.448 239.664 617.759 241.346 616.552 243.04C615.423 244.623 614.226 246.898 614.53 249.518Z" stroke="#77DFDE" stroke-width="9"/>
<path fill-rule="evenodd" clip-rule="evenodd" d="M674 767L998.6 807.54L974.5 907L674 767Z" fill="url(#paint13_linear_0_2)"/>
<path fill-rule="evenodd" clip-rule="evenodd" d="M1138 223.5C1138 223.5 1162.56 238.692 1180 249C1197.44 259.308 1230.5 287 1230.5 287C1230.5 287 1252.77 302.783 1230.5 326.5C1208.23 350.217 1167 400.8 1167 400.8C1167 400.8 1113.09 444.829 1081.4 464C1049.71 483.172 1138 223.5 1138 223.5Z" fill="url(#paint14_linear_0_2)" stroke="#06707D" stroke-width="9"/>
<path d="M1082.5 495.895L1079.03 494.335L1076.91 497.503L1080.66 500C1076.91 497.503 1076.91 497.504 1076.91 497.506L1076.91 497.51L1076.9 497.523L1076.87 497.563C1076.85 497.598 1076.82 497.646 1076.78 497.708C1076.7 497.832 1076.58 498.011 1076.43 498.245C1076.13 498.712 1075.7 499.397 1075.16 500.292C1074.07 502.081 1072.53 504.71 1070.67 508.115C1066.96 514.924 1061.99 524.845 1056.94 537.368C1046.84 562.403 1036.35 597.925 1034.83 639.837C1033.33 681.189 1033.33 715.018 1033.71 738.52C1033.9 750.271 1034.18 759.442 1034.41 765.681C1034.53 768.801 1034.64 771.188 1034.71 772.798C1034.75 773.603 1034.78 774.214 1034.8 774.626C1034.81 774.832 1034.82 774.987 1034.83 775.093L1034.83 775.213L1034.84 775.244L1034.84 775.252L1034.84 775.255C1034.84 775.256 1034.84 775.256 1039.33 775L1034.84 775.256L1035.08 779.496L1039.33 779.5L1279.97 779.73L1284.54 779.734L1284.47 775.161C1283.89 737.567 1283.9 691.17 1284.05 654.154C1284.13 635.65 1284.24 619.497 1284.33 607.971C1284.38 602.207 1284.42 597.601 1284.45 594.436C1284.47 592.853 1284.48 591.631 1284.49 590.804L1284.5 589.866L1284.5 589.628L1284.5 589.568L1284.5 589.553L1284.5 589.549C1284.5 589.549 1284.5 589.548 1280 589.5L1284.5 589.548L1284.53 586.602L1281.84 585.395L1082.5 495.895Z" fill="#5FFFFD" stroke="black" stroke-width="9"/>
<path fill-rule="evenodd" clip-rule="evenodd" d="M860 166C860 166 926.69 225.963 976 291C1025.31 356.037 1059.5 409.5 1059.5 409.5H786L860 166Z" fill="#EE332C" stroke="#C4110C" stroke-width="9"/>
<g filter="url(#filter2_d_0_2)">
<path fill-rule="evenodd" clip-rule="evenodd" d="M1074.1 501L1209 400.8H1280V586.6L1074.1 501Z" fill="url(#paint15_radial_0_2)"/>
</g>
<path fill-rule="evenodd" clip-rule="evenodd" d="M220.778 403.5L350.925 502.071L205.819 743.568L70.3867 662.192C70.3867 662.192 132.902 567.138 170.5 504.565C208.098 441.992 220.778 403.5 220.778 403.5Z" fill="url(#paint16_linear_0_2)"/>
<path fill-rule="evenodd" clip-rule="evenodd" d="M275 159.5C275 159.5 197.381 246.836 193 307.5C188.619 368.165 225.344 431.811 244.5 432C263.656 432.189 255.346 430.948 294 461.5C332.654 492.052 487 598 487 598C487 598 531.743 558.003 542.5 519.5C553.257 480.997 563.537 435.677 579 391C594.463 346.324 614.6 279 614.6 279L378 167.7L275 159.5Z" fill="#EAF33D" stroke="black" stroke-width="9"/>
<path fill-rule="evenodd" clip-rule="evenodd" d="M-4.19617e-05 447.5C-4.19617e-05 447.5 3.11093 434.326 28 401.5C52.889 368.674 113.5 304 113.5 304C113.5 304 134.442 282.117 150.5 270C166.558 257.883 228.377 168.765 232 168C235.623 167.235 269.5 168 269.5 168C269.5 168 236.669 181.002 229.5 291C222.331 400.998 232 386 232 386L-4.19617e-05 447.5Z" fill="#EAF33D" stroke="black" stroke-width="9" stroke-linejoin="round"/>
<path d="M42.8802 689.458L43.1576 689.227L43.3945 688.954L40 686C43.3945 688.954 43.3951 688.954 43.3961 688.953L43.3996 688.949L43.4124 688.934L43.4612 688.878L43.6504 688.659C43.8166 688.467 44.0625 688.182 44.3841 687.808C45.0274 687.059 45.9737 685.952 47.1917 684.515C49.6278 681.639 53.1512 677.438 57.5117 672.123C66.2317 661.494 78.3047 646.403 91.7262 628.545C118.535 592.873 150.862 545.979 172.546 501.471C194.055 457.32 207.698 428.031 215.97 409.766C220.106 400.632 222.901 394.253 224.664 390.149C225.546 388.096 226.17 386.612 226.576 385.636C226.779 385.148 226.928 384.787 227.026 384.546C227.076 384.425 227.112 384.334 227.137 384.272L227.166 384.201L227.174 384.181L227.176 384.175L227.177 384.173C227.177 384.173 227.178 384.172 223 382.5L227.178 384.172L219.818 379.368C219.793 379.343 219.794 379.342 219.795 379.342L219.801 379.335L219.814 379.322L219.835 379.301L219.845 379.291C219.852 379.284 219.858 379.279 219.862 379.275C219.873 379.265 219.869 379.269 219.85 379.286C219.811 379.32 219.709 379.408 219.531 379.547C219.175 379.824 218.517 380.301 217.461 380.948C215.345 382.245 211.654 384.212 205.622 386.623C193.546 391.452 172.236 398.008 135.704 404.571C62.4001 417.74 31.5263 425.633 8.30967 438.569C-3.27107 445.022 -20.1524 456.143 -33.6694 478.128C-47.181 500.103 -57.0774 532.516 -55.4977 581.146C-53.9157 629.844 -40.9535 665.11 -28.2799 688.277C-21.9483 699.851 -15.6983 708.389 -10.9959 714.064C-8.64466 716.902 -6.67974 719.025 -5.28401 720.455C-4.5861 721.17 -4.03035 721.712 -3.63959 722.083C-3.4442 722.269 -3.29004 722.412 -3.17996 722.513C-3.15601 722.535 -3.13414 722.555 -3.1144 722.573C-3.08876 722.597 -3.06668 722.617 -3.04824 722.633L-3.00784 722.67L-2.99412 722.682L-2.98889 722.687C-2.98673 722.688 -2.98476 722.69 -4.19617e-05 719.323L-2.98476 722.69L-0.0908318 725.255L2.88023 722.78L42.8802 689.458Z" fill="#DBF941" stroke="black" stroke-width="9"/>
<path d="M164.247 255.006L167.231 264.754L172.422 255.982L172.422 255.982L172.423 255.981L172.423 255.981L172.428 255.972L172.454 255.929C172.477 255.889 172.515 255.827 172.565 255.744C172.666 255.576 172.82 255.323 173.026 254.99C173.437 254.324 174.053 253.341 174.862 252.091C176.479 249.592 178.862 246.034 181.904 241.832C187.999 233.413 196.692 222.48 207.13 212.311C217.583 202.128 229.884 192.616 239.631 185.617C244.492 182.127 248.692 179.28 251.672 177.309C253.162 176.324 254.346 175.558 255.154 175.041C255.558 174.782 255.868 174.586 256.075 174.455C256.178 174.39 256.256 174.341 256.307 174.309L256.363 174.274L256.376 174.266L256.378 174.264L256.378 174.264L256.379 174.264L266.658 167.866L254.694 165.998L138.194 147.813L131.094 146.704L133.197 153.576L164.247 255.006Z" fill="url(#paint17_linear_0_2)"/>
<path d="M164.247 255.006L167.231 264.754L172.422 255.982L172.422 255.982L172.423 255.981L172.423 255.981L172.428 255.972L172.454 255.929C172.477 255.889 172.515 255.827 172.565 255.744C172.666 255.576 172.82 255.323 173.026 254.99C173.437 254.324 174.053 253.341 174.862 252.091C176.479 249.592 178.862 246.034 181.904 241.832C187.999 233.413 196.692 222.48 207.13 212.311C217.583 202.128 229.884 192.616 239.631 185.617C244.492 182.127 248.692 179.28 251.672 177.309C253.162 176.324 254.346 175.558 255.154 175.041C255.558 174.782 255.868 174.586 256.075 174.455C256.178 174.39 256.256 174.341 256.307 174.309L256.363 174.274L256.376 174.266L256.378 174.264L256.378 174.264L256.379 174.264L266.658 167.866L254.694 165.998L138.194 147.813L131.094 146.704L133.197 153.576L164.247 255.006Z" stroke="#000135" stroke-width="9"/>
<path d="M164.247 255.006L167.231 264.754L172.422 255.982L172.422 255.982L172.423 255.981L172.423 255.981L172.428 255.972L172.454 255.929C172.477 255.889 172.515 255.827 172.565 255.744C172.666 255.576 172.82 255.323 173.026 254.99C173.437 254.324 174.053 253.341 174.862 252.091C176.479 249.592 178.862 246.034 181.904 241.832C187.999 233.413 196.692 222.48 207.13 212.311C217.583 202.128 229.884 192.616 239.631 185.617C244.492 182.127 248.692 179.28 251.672 177.309C253.162 176.324 254.346 175.558 255.154 175.041C255.558 174.782 255.868 174.586 256.075 174.455C256.178 174.39 256.256 174.341 256.307 174.309L256.363 174.274L256.376 174.266L256.378 174.264L256.378 174.264L256.379 174.264L266.658 167.866L254.694 165.998L138.194 147.813L131.094 146.704L133.197 153.576L164.247 255.006Z" stroke="#06017F" stroke-width="9"/>
<path d="M290.287 404.022C323.671 364.45 342.019 314.113 349.453 263.15C358.936 198.133 369.65 182.21 381.714 173.09C383.076 172.06 387.106 169.724 393.589 166.254C399.918 162.866 408.242 158.574 417.878 153.698C437.144 143.948 461.571 131.906 485.588 120.178C509.601 108.452 533.19 97.0471 550.777 88.5732C559.57 84.3363 566.862 80.8325 571.956 78.3881C574.502 77.1659 576.499 76.2085 577.859 75.5568L579.411 74.8135L579.808 74.6233L579.909 74.5753L579.934 74.5632L579.94 74.5602C579.942 74.5596 579.942 74.5593 578 70.5L579.942 74.5593L581.435 73.8452L582.096 72.364L582.096 72.3626C582.097 72.362 582.097 72.3607 582.098 72.3596C582.098 72.3589 582.098 72.3584 582.099 72.3575C582.103 72.3488 582.111 72.3318 582.123 72.307C582.155 72.2438 582.211 72.1323 582.293 71.9836C582.459 71.6833 582.718 71.2488 583.068 70.7636C583.798 69.7494 584.755 68.7439 585.864 68.1327C586.85 67.5891 588.041 67.2946 589.684 67.744C591.47 68.2327 594.153 69.7081 597.69 73.5483C598.107 74.002 598.791 75.0746 599.601 77.1006C600.381 79.0504 601.163 81.5845 601.925 84.6798C603.449 90.8661 604.815 98.9566 605.974 108.397C608.29 127.257 609.736 151.126 610.058 175.123C610.38 199.127 609.575 223.12 607.424 242.243C606.347 251.815 604.947 260.045 603.225 266.399C601.434 273.008 599.507 276.735 597.927 278.213C595.903 280.105 591.092 282.992 583.551 286.679C576.196 290.275 566.739 294.403 555.889 298.846C534.2 307.73 507.169 317.787 480.733 327.259C454.307 336.728 428.521 345.595 409.337 352.096C399.747 355.346 391.809 358.004 386.269 359.849C383.5 360.772 381.33 361.491 379.853 361.98L379.23 362.186C378.789 362.331 378.434 362.449 378.169 362.536L377.739 362.678L377.635 362.712L377.631 362.713H377.631L377.62 362.717L377.604 362.722L377.597 362.724L377.583 362.729L377.449 362.772C377.333 362.81 377.165 362.865 376.945 362.938C376.506 363.084 375.861 363.302 375.021 363.594C373.34 364.179 370.878 365.063 367.713 366.27C361.383 368.685 352.241 372.393 340.923 377.593C326.963 384.007 309.686 392.693 290.287 404.022Z" fill="url(#paint18_linear_0_2)" stroke="url(#paint19_linear_0_2)" stroke-width="9"/>
<path d="M208.39 703.125L229.41 409.211L481.608 592.738L208.39 703.125Z" fill="#EB352A" stroke="black" stroke-width="9"/>
<path d="M485.926 594.814L487.428 586.647L479.766 589.848L196.586 708.129L188.756 711.399L195.856 716.046L429.174 868.765L434.839 872.473L436.064 865.814L485.926 594.814Z" fill="url(#paint20_radial_0_2)"/>
<path d="M485.926 594.814L487.428 586.647L479.766 589.848L196.586 708.129L188.756 711.399L195.856 716.046L429.174 868.765L434.839 872.473L436.064 865.814L485.926 594.814Z" stroke="black" stroke-width="9"/>
<path d="M485.926 594.814L487.428 586.647L479.766 589.848L196.586 708.129L188.756 711.399L195.856 716.046L429.174 868.765L434.839 872.473L436.064 865.814L485.926 594.814Z" stroke="#52E5E6" stroke-width="9"/>
<path fill-rule="evenodd" clip-rule="evenodd" d="M688 910.1L1005.5 894.6L1005.5 1034.6C998.448 1109.35 977.358 1154.49 955.5 1199.6C857.938 1228.6 703 1231.6 703 1231.6L688 910.1Z" fill="url(#paint21_radial_0_2)"/>
<path fill-rule="evenodd" clip-rule="evenodd" d="M835 854.5L1005.02 910.327L938.722 1059.23L713.076 958.771L797.673 886.422L797.679 886.418L835 854.5Z" fill="url(#paint22_linear_0_2)"/>
<path d="M675.921 769.93L671.377 767.785L669.744 772.538L555.706 1104.54L554.888 1106.92L556.487 1108.86L559.962 1106C556.487 1108.86 556.488 1108.86 556.489 1108.86L556.49 1108.86L556.494 1108.87L556.507 1108.88L556.546 1108.93C556.579 1108.97 556.626 1109.03 556.687 1109.1C556.808 1109.24 556.986 1109.45 557.222 1109.72C557.696 1110.27 558.408 1111.07 559.385 1112.15C561.339 1114.29 564.356 1117.5 568.657 1121.81C577.259 1130.45 591.001 1143.52 611.655 1161.39C632.292 1179.24 659.841 1201.9 682.204 1220.06C693.391 1229.15 703.29 1237.13 710.393 1242.83C713.945 1245.68 716.798 1247.97 718.763 1249.54C719.745 1250.32 720.506 1250.93 721.022 1251.34L721.607 1251.81L721.757 1251.93L721.795 1251.96L721.804 1251.97L721.807 1251.97C721.807 1251.97 721.808 1251.97 724.612 1248.45L721.808 1251.97L726.863 1256L728.886 1249.86L822.406 966.075L921.971 1033.72L926.795 1037L928.742 1031.5L974.242 903.002L975.725 898.814L971.557 897.278L853.742 853.846L675.921 769.93Z" fill="url(#paint23_linear_0_2)" stroke="black" stroke-width="9"/>
<path fill-rule="evenodd" clip-rule="evenodd" d="M674.257 773.999L852.257 858L970.257 901.5L924.757 1030L820 959L724.868 1248.45C724.868 1248.45 656.019 1193.6 614.856 1157.98C573.694 1122.37 560.218 1106 560.218 1106L674.257 773.999Z" fill="url(#paint24_linear_0_2)"/>
<mask id="path-35-inside-1_0_2" fill="white">
<path fill-rule="evenodd" clip-rule="evenodd" d="M820 959L925 1031L968.5 903.5"/>
</mask>
<path d="M822.828 954.876C820.55 953.315 817.438 953.895 815.876 956.172C814.315 958.45 814.895 961.562 817.172 963.124L822.828 954.876ZM925 1031L922.172 1035.12C923.462 1036.01 925.091 1036.24 926.575 1035.75C928.059 1035.25 929.227 1034.09 929.732 1032.61L925 1031ZM973.232 905.115C974.124 902.501 972.728 899.659 970.114 898.768C967.501 897.876 964.659 899.272 963.768 901.885L973.232 905.115ZM817.172 963.124L922.172 1035.12L927.828 1026.88L822.828 954.876L817.172 963.124ZM929.732 1032.61L973.232 905.115L963.768 901.885L920.268 1029.39L929.732 1032.61Z" fill="url(#paint25_radial_0_2)" mask="url(#path-35-inside-1_0_2)"/>
<path fill-rule="evenodd" clip-rule="evenodd" d="M956 1086.5C956 1086.5 966.618 1075.22 989.5 1065C1012.38 1054.78 1190.5 1004 1190.5 1004C1190.5 1004 1222.75 1002.81 1231.5 991.5C1240.25 980.192 1242.5 958.5 1242.5 958.5L1308.5 783.6C1308.5 783.6 1296.83 772.082 1257.5 770.5C1218.17 768.918 1057 770.5 1057 770.5C1057 770.5 1016.36 762.558 1004 770.5C991.638 778.442 989.5 829.5 989.5 829.5C989.5 829.5 939.311 995.867 936.811 1011.12C909.429 1040.54 905.5 1046 905.5 1046L956 1086.5Z" fill="#300096"/>
<path fill-rule="evenodd" clip-rule="evenodd" d="M1201.5 958.531C1223.85 973.5 1242.74 958.531 1242.74 958.531L1308.74 783.63C1308.74 783.63 1297.08 772.111 1257.74 770.53C1238.66 769.762 1193.44 767 1139.5 767C1085.56 767 1042 770.53 1042 770.53C1042 770.53 1027.44 768.5 1042 793C1056.56 817.5 1179.15 943.561 1201.5 958.531Z" fill="url(#paint26_linear_0_2)"/>
<rect x="902.8" y="1048.88" width="9" height="110" rx="4.5" transform="rotate(-47 902.8 1048.88)" fill="#300096"/>
<path d="M50.8907 1080.38L49.492 1088.59L57.1245 1085.26L193.076 1026.02L202.922 1021.73L192.958 1017.72L75.1799 970.325L70.0017 968.242L69.064 973.744L50.8907 1080.38Z" fill="url(#paint27_linear_0_2)" stroke="#1D0E6E" stroke-width="9"/>
<path d="M475.5 901.5L477.429 905.566L484.941 902.001L477.849 897.661L475.5 901.5ZM475.5 901.5C477.429 905.566 477.428 905.566 477.427 905.566L477.423 905.568L477.407 905.576L477.341 905.607L477.084 905.729C476.857 905.836 476.52 905.996 476.078 906.204C475.194 906.622 473.889 907.236 472.206 908.026C468.841 909.606 463.961 911.887 457.9 914.694C445.779 920.307 428.931 928.025 410.021 936.446C372.249 953.267 326.085 972.968 292.952 984.259C264.73 993.877 243.597 1003.57 226.247 1011.54C223.515 1012.79 220.878 1014 218.321 1015.16C199.719 1023.6 184.793 1029.71 169.438 1029.5C154.453 1029.29 139.246 1024.7 127.961 1020.29C122.281 1018.08 117.512 1015.87 114.156 1014.22C112.477 1013.39 111.148 1012.7 110.231 1012.21C109.772 1011.96 109.417 1011.77 109.172 1011.63C109.049 1011.57 108.955 1011.51 108.888 1011.48L108.811 1011.43L108.788 1011.42L108.781 1011.41L108.778 1011.41C108.777 1011.41 108.776 1011.41 111 1007.5L108.776 1011.41L108.352 1011.17L107.99 1010.84L107.99 1010.84L107.988 1010.84L107.982 1010.84L107.955 1010.81L107.843 1010.71C107.742 1010.62 107.59 1010.49 107.386 1010.3C106.979 1009.94 106.363 1009.39 105.537 1008.66C103.883 1007.19 101.385 1004.99 98.0143 1002.04C91.2721 996.149 81.0379 987.287 67.0857 975.429C64.6745 973.379 62.6724 970.366 60.95 966.943C59.1964 963.459 57.5725 959.223 56.0557 954.421C53.0219 944.818 50.2969 932.564 47.8461 918.704C42.9404 890.963 39.0499 856.304 36.042 822.495C33.0321 788.664 30.8979 755.588 29.5162 730.976C28.8252 718.668 28.3222 708.472 27.9919 701.352C27.8267 697.791 27.7047 695 27.6239 693.097C27.5835 692.145 27.5534 691.416 27.5334 690.924L27.511 690.366L27.5053 690.224L27.5039 690.188L27.5035 690.179C27.5035 690.176 27.5034 690.175 32 690M475.5 901.5C477.849 897.661 477.848 897.661 477.847 897.66L477.841 897.657L477.818 897.643L477.725 897.586L477.357 897.36C477.031 897.161 476.547 896.864 475.913 896.476C475.375 896.146 474.728 895.749 473.979 895.29C472.966 894.668 471.765 893.931 470.389 893.087C465.607 890.15 458.722 885.915 450.311 880.726C433.489 870.347 410.568 856.15 386.167 840.876C337.295 810.285 282.698 775.503 259.148 758.362C235.342 741.034 212.632 726.103 195.877 715.506C187.497 710.206 180.602 705.987 175.797 703.09C173.395 701.642 171.515 700.524 170.233 699.767C169.592 699.388 169.101 699.1 168.768 698.905C168.602 698.808 168.476 698.734 168.39 698.684L168.293 698.628L168.268 698.613L168.261 698.609L168.259 698.608C168.258 698.608 168.258 698.607 166 702.5L168.258 698.607L168.001 698.458L167.727 698.345L166.223 701.964C167.727 698.345 167.727 698.345 167.727 698.344L167.725 698.344L167.715 698.339L167.673 698.322L167.5 698.25C167.347 698.185 167.117 698.089 166.816 697.962C166.213 697.708 165.324 697.33 164.184 696.841C161.903 695.863 158.621 694.438 154.625 692.655C146.629 689.087 135.791 684.095 124.41 678.39C113.015 672.68 101.142 666.288 91.0487 659.924C80.817 653.473 72.8991 647.346 68.961 642.249C66.3603 638.882 63.2602 636.463 59.5664 635.859C55.7796 635.24 52.461 636.699 49.8611 638.754C44.9263 642.654 40.9439 649.963 37.8769 657.049C34.7092 664.368 32.1463 672.364 30.3849 678.473C29.5006 681.54 28.8106 684.158 28.3407 686.014C28.1057 686.943 27.9254 687.681 27.8031 688.191C27.7419 688.446 27.6952 688.645 27.6634 688.781L27.6268 688.938L27.617 688.98L27.6143 688.992L27.6134 688.996C27.6131 688.997 27.6129 688.998 32 690M32 690L27.6129 688.998L27.4802 689.579L27.5034 690.175L32 690Z" fill="#59FFFD" stroke="black" stroke-width="9"/>
<path fill-rule="evenodd" clip-rule="evenodd" d="M426 865C426 865 442.989 960.475 444 1050C445.011 1139.52 439.5 1207.5 439.5 1207.5C439.5 1207.5 455.36 1232.29 469 1230.5C482.64 1228.71 542.326 1165.72 562 1110.5C581.674 1055.28 593.834 1009.94 595 1000C596.166 990.064 604.288 971.738 571 949.5C537.712 927.262 426 865 426 865Z" fill="#4BED0C" stroke="#069200" stroke-width="9"/>
<path fill-rule="evenodd" clip-rule="evenodd" d="M448.473 897.539C448.473 897.539 466.489 901.716 474.161 909.145C481.833 916.573 479.161 927.253 479.161 927.253L442.513 913.914L448.473 897.539Z" fill="url(#paint28_radial_0_2)"/>
<path d="M452 1115.46C452 1115.46 471.116 1112.73 497.702 1115.46C524.288 1118.19 542 1128.25 542 1128.25" stroke="black" stroke-width="5"/>
<path d="M463.024 1117.79C463.024 1117.79 478.583 1116.22 500.294 1117.28C522.004 1118.35 536.56 1123.18 536.56 1123.18" stroke="black" stroke-width="11" stroke-linecap="round" stroke-linejoin="round"/>
<path fill-rule="evenodd" clip-rule="evenodd" d="M2.29541 719L41.2954 690C41.2954 690 38.5685 728.053 41.2954 774C44.0224 819.947 47.1926 807.161 55.7954 862C64.3983 916.839 57.7195 934.548 63.7954 962C69.8714 989.452 57.3708 1106.19 41.2954 1090.5C28.6933 1078.2 9.63588 998.316 0.136479 937.802C-2.4817 921.123 2.29541 719 2.29541 719Z" fill="url(#paint29_linear_0_2)" stroke="#562F72" stroke-width="9"/>
<path d="M491.418 598.022C490.172 597.253 488.629 597.139 487.283 597.716C485.937 598.293 484.956 599.489 484.653 600.922L427.097 873.57C426.744 875.244 427.37 876.972 428.712 878.032C430.054 879.092 431.881 879.299 433.426 878.567L716.031 744.721C717.522 744.015 718.507 742.55 718.598 740.903C718.689 739.255 717.871 737.69 716.467 736.824L491.418 598.022Z" fill="url(#paint30_linear_0_2)" stroke="black" stroke-width="9" stroke-linejoin="round"/>
<path fill-rule="evenodd" clip-rule="evenodd" d="M-69.821 1021.45C-69.821 1021.45 -70.3943 959.071 -35.7216 927.767C-1.04892 896.463 65.1109 894.87 65.1109 894.87L72.3516 1013.71L-69.821 1021.45Z" fill="url(#paint31_radial_0_2)"/>
<path d="M2.99317 566.269L-4.49999 559.594V569.629L-4.49999 721.5V732.608L3.23116 724.632L82.2312 643.132L85.498 639.762L81.9932 636.64L2.99317 566.269Z" fill="url(#paint32_linear_0_2)" stroke="black" stroke-width="9"/>
<ellipse cx="46.1" cy="1001.45" rx="23" ry="94.45" fill="url(#paint33_radial_0_2)"/>
<path fill-rule="evenodd" clip-rule="evenodd" d="M754.127 871.47C754.846 907.964 762 948.036 755.557 986.678C745.536 1005.28 726.938 1007.44 710.48 1014.59C687.578 1011.01 668.255 995.981 658.959 974.516C653.234 930.866 660.389 889.358 662.537 845.708C662.537 844.271 689.726 846.427 714.057 853.582C734.803 860.019 754.127 870.751 754.127 871.47V871.47V871.47ZM551.622 874.329C531.579 950.191 578.1 1073.98 654.663 972.368C648.938 929.43 655.382 887.928 657.522 845.708C658.241 842.131 552.34 869.322 551.622 874.329V874.329V874.329Z" fill="white"/>
<path fill-rule="evenodd" clip-rule="evenodd" d="M762.712 905.105C761.275 883.632 760.564 875.047 760.564 864.314V859.307L755.557 857.871L665.396 829.968V824.954L656.093 827.109H655.375V827.82L553.77 853.582L550.192 854.3L548.756 857.871C533.016 895.802 536.594 953.05 556.629 988.115C579.53 1028.19 616.734 1028.9 654.663 983.1C665.382 1003.79 685.307 1018.14 708.325 1021.75H710.48L712.621 1021.03C715.487 1019.59 718.346 1018.88 723.36 1016.73C724.078 1016.73 724.078 1016.73 724.79 1016.02C745.536 1008.86 754.127 1003.14 761.282 989.544L762.001 988.826V987.396C764.141 974.516 764.86 960.917 764.86 945.895C764.86 935.155 764.141 925.133 762.712 905.105V905.105V905.105ZM648.22 878.625C647.501 891.506 646.79 896.513 646.079 903.668C644.642 930.148 644.642 950.184 646.797 970.22C613.156 1013.16 586.685 1013.16 568.798 980.952C551.622 950.902 548.037 900.09 560.925 866.463L651.079 843.56C650.368 852.863 649.656 862.167 648.22 878.625V878.625V878.625ZM748.402 984.537C743.395 993.122 736.951 997.418 719.775 1003.14C719.057 1003.14 719.057 1003.14 718.346 1003.85C714.057 1005.29 711.191 1006.71 709.043 1007.43C689.719 1003.85 673.269 990.974 665.396 973.086C663.248 953.761 663.248 933.725 664.677 907.253C665.396 900.09 665.396 895.083 666.832 882.202C668.255 865.751 668.973 855.73 668.973 846.427L746.972 870.04C746.972 879.343 747.691 887.928 749.12 906.534C750.55 925.859 751.261 935.873 751.261 947.325C751.261 960.916 750.543 973.086 748.402 984.537V984.537V984.537Z" fill="black"/>
<path fill-rule="evenodd" clip-rule="evenodd" d="M120.886 559.702C186.717 815.88 596.735 750.047 580.996 493.151C562.383 185.442 57.9149 244.839 120.879 559.702" fill="white"/>
<path fill-rule="evenodd" clip-rule="evenodd" d="M588.15 492.432C583.854 418.007 550.939 360.047 496.56 323.553C447.898 290.636 383.497 277.755 319.814 285.622C256.132 294.221 197.449 322.842 158.809 367.928C115.879 418.014 99.4218 483.847 114.45 559.702L120.886 558.265L114.45 559.702C181.71 823.036 603.89 759.35 588.15 492.432V492.432V492.432ZM127.323 558.273C113.013 486.003 128.76 424.458 168.83 377.942C205.322 335.722 260.42 307.82 321.244 299.946C382.067 292.073 442.891 304.242 488.694 335.722C539.489 370.076 570.263 423.747 574.552 494.587C589.58 744.329 191.013 804.444 127.33 558.273H127.323V558.273Z" fill="black"/>
<path fill-rule="evenodd" clip-rule="evenodd" d="M164.541 517.482C164.541 475.986 195.616 442.346 233.949 442.346C272.282 442.346 303.357 475.986 303.357 517.482C303.357 558.979 272.282 592.619 233.949 592.619C195.616 592.619 164.541 558.979 164.541 517.482V517.482Z" fill="black"/>
<path fill-rule="evenodd" clip-rule="evenodd" d="M248.97 534.652C248.97 523.983 256.338 515.334 265.427 515.334C274.517 515.334 281.885 523.983 281.885 534.652C281.885 545.321 274.517 553.97 265.427 553.97C256.338 553.97 248.97 545.321 248.97 534.652V534.652Z" fill="white"/>
<path fill-rule="evenodd" clip-rule="evenodd" d="M695.904 511.807C746.714 805.917 1227.57 727.914 1158.16 431.656C1095.91 165.456 678.728 239.163 695.904 511.807" fill="white"/>
<path fill-rule="evenodd" clip-rule="evenodd" d="M1164.6 430.227C1100.92 156.154 671.588 231.29 688.757 512.519V513.237C712.362 652.059 836.163 722.906 972.831 700.004C1035.08 689.271 1090.89 659.221 1127.39 614.853C1167.46 565.471 1181.77 501.786 1164.6 430.227V430.227V430.227ZM1116.66 606.261C1082.31 647.77 1030.08 676.391 970.684 686.412C841.164 707.878 725.242 641.326 702.348 511.089C686.601 246.319 1091.61 175.471 1151.72 433.086C1167.46 501.067 1154.58 560.464 1116.66 606.261V606.261V606.261Z" fill="black"/>
<path fill-rule="evenodd" clip-rule="evenodd" d="M745.995 498.927C745.995 457.43 776.43 423.79 813.974 423.79C851.517 423.79 881.953 457.43 881.953 498.927C881.953 540.423 851.517 574.063 813.974 574.063C776.43 574.063 745.995 540.423 745.995 498.927V498.927Z" fill="black"/>
<path fill-rule="evenodd" clip-rule="evenodd" d="M829.72 516.096C829.72 505.427 836.766 496.779 845.459 496.779C854.151 496.779 861.198 505.427 861.198 516.096C861.198 526.765 854.151 535.414 845.459 535.414C836.766 535.414 829.72 526.765 829.72 516.096V516.096Z" fill="white"/>
<path fill-rule="evenodd" clip-rule="evenodd" d="M566.399 719.738C509.864 724.745 464.068 791.297 493.413 844.25C532.047 914.379 618.63 837.813 672.299 844.968C734.552 846.405 785.361 910.801 834.734 856.419C889.832 796.304 811.122 737.626 748.862 711.865L566.399 719.738V719.738V719.738Z" fill="#F6D2A2"/>
<path fill-rule="evenodd" clip-rule="evenodd" d="M841.889 767.683C822.565 743.352 788.939 721.168 752.439 706.139L751.009 705.421H749.58L566.398 712.583C502.709 718.308 456.92 792.015 487.681 847.827C499.85 869.3 516.307 880.033 538.49 881.462C554.941 882.181 572.124 878.603 598.595 869.3C600.743 868.581 603.602 867.863 607.179 866.433C642.961 854.271 657.271 850.693 671.58 852.841H672.299C689.468 852.841 703.784 857.849 730.974 868.581C761.031 880.744 770.333 884.329 785.354 885.751C806.115 887.188 824.002 880.033 840.452 862.145C868.361 831.369 866.931 798.452 841.889 767.683V767.683V767.683ZM829.72 852.123C816.129 867.152 802.53 872.166 786.073 871.448C773.192 870.729 764.608 867.152 735.981 855.701C707.362 843.538 691.623 839.25 673.017 838.531C655.13 836.376 640.102 839.961 602.173 852.841C598.595 854.271 595.736 854.989 593.588 855.701C541.349 873.589 516.307 872.159 499.131 840.672C473.371 794.163 512.73 731.189 566.398 726.182L747.432 719.02C781.784 733.337 812.551 754.084 830.438 776.275C851.903 802.03 852.621 827.791 829.72 852.123V852.123V852.123Z" fill="#231F20"/>
<path fill-rule="evenodd" clip-rule="evenodd" d="M763.178 688.969C740.996 607.389 554.948 619.558 559.236 716.879C568.539 789.149 784.643 769.824 763.178 688.969V688.969V688.969Z" fill="black"/>
</g>
<defs>
<filter id="filter0_d_0_2" x="640" y="7.59998" width="292" height="170" filterUnits="userSpaceOnUse" color-interpolation-filters="sRGB">
<feFlood flood-opacity="0" result="BackgroundImageFix"/>
<feColorMatrix in="SourceAlpha" type="matrix" values="0 0 0 0 0 0 0 0 0 0 0 0 0 0 0 0 0 0 127 0" result="hardAlpha"/>
<feMorphology radius="40" operator="erode" in="SourceAlpha" result="effect1_dropShadow_0_2"/>
<feOffset dy="-47"/>
<feColorMatrix type="matrix" values="0 0 0 0 0.14902 0 0 0 0 0.0196078 0 0 0 0 0 0 0 0 1 0"/>
<feBlend mode="normal" in2="BackgroundImageFix" result="effect1_dropShadow_0_2"/>
<feBlend mode="normal" in="SourceGraphic" in2="effect1_dropShadow_0_2" result="shape"/>
</filter>
<filter id="filter1_d_0_2" x="785.267" y="400.8" width="296.102" height="202.2" filterUnits="userSpaceOnUse" color-interpolation-filters="sRGB">
<feFlood flood-opacity="0" result="BackgroundImageFix"/>
<feColorMatrix in="SourceAlpha" type="matrix" values="0 0 0 0 0 0 0 0 0 0 0 0 0 0 0 0 0 0 127 0" result="hardAlpha"/>
<feMorphology radius="26" operator="erode" in="SourceAlpha" result="effect1_dropShadow_0_2"/>
<feOffset dy="24"/>
<feColorMatrix type="matrix" values="0 0 0 0 0 0 0 0 0 0 0 0 0 0 0 0 0 0 1 0"/>
<feBlend mode="normal" in2="BackgroundImageFix" result="effect1_dropShadow_0_2"/>
<feBlend mode="normal" in="SourceGraphic" in2="effect1_dropShadow_0_2" result="shape"/>
</filter>
<filter id="filter2_d_0_2" x="1068.1" y="390.8" width="211.9" height="195.8" filterUnits="userSpaceOnUse" color-interpolation-filters="sRGB">
<feFlood flood-opacity="0" result="BackgroundImageFix"/>
<feColorMatrix in="SourceAlpha" type="matrix" values="0 0 0 0 0 0 0 0 0 0 0 0 0 0 0 0 0 0 127 0" result="hardAlpha"/>
<feOffset dx="-6" dy="-10"/>
<feColorMatrix type="matrix" values="0 0 0 0 0 0 0 0 0 0 0 0 0 0 0 0 0 0 1 0"/>
<feBlend mode="normal" in2="BackgroundImageFix" result="effect1_dropShadow_0_2"/>
<feBlend mode="normal" in="SourceGraphic" in2="effect1_dropShadow_0_2" result="shape"/>
</filter>
<radialGradient id="paint0_radial_0_2" cx="0" cy="0" r="1" gradientUnits="userSpaceOnUse" gradientTransform="translate(836.947 48.5079) rotate(23.9829) scale(139.883 73.4194)">
<stop stop-color="#D4C716"/>
<stop offset="1" stop-color="#F1EE0D"/>
</radialGradient>
<radialGradient id="paint1_radial_0_2" cx="0" cy="0" r="1" gradientUnits="userSpaceOnUse" gradientTransform="translate(958.143 101.527) rotate(28.9172) scale(179.77 155.674)">
<stop stop-color="#7DF6A6"/>
<stop offset="0.159091" stop-color="#76E9A8"/>
<stop offset="0.376543" stop-color="#66FBB7"/>
<stop offset="0.580247" stop-color="#60FBBF"/>
<stop offset="0.728395" stop-color="#5DFBC3"/>
<stop offset="0.851852" stop-color="#56FBD1"/>
<stop offset="1" stop-color="#56FBD1"/>
</radialGradient>
<radialGradient id="paint2_radial_0_2" cx="0" cy="0" r="1" gradientUnits="userSpaceOnUse" gradientTransform="translate(1109.52 477.193) rotate(-62.2887) scale(223.87 95.255)">
<stop stop-color="#9CFCFB"/>
<stop offset="0.320988" stop-color="#A5FAF9" stop-opacity="0.862745"/>
<stop offset="0.506173" stop-color="#AFF8F8" stop-opacity="0.72549"/>
<stop offset="0.722222" stop-color="#C1F6F6" stop-opacity="0.47451"/>
<stop offset="1" stop-color="white" stop-opacity="0.01"/>
</radialGradient>
<radialGradient id="paint3_radial_0_2" cx="0" cy="0" r="1" gradientUnits="userSpaceOnUse" gradientTransform="translate(929.722 603.915) rotate(-40.7801) scale(234.117 258.143)">
<stop stop-color="#DDFF17"/>
<stop offset="0.382716" stop-color="#DDFF17"/>
<stop offset="0.846591" stop-color="#D2CD57"/>
<stop offset="1" stop-color="white"/>
</radialGradient>
<linearGradient id="paint4_linear_0_2" x1="861.4" y1="241.838" x2="1135.02" y2="241.838" gradientUnits="userSpaceOnUse">
<stop stop-color="#DBF941"/>
<stop offset="1" stop-color="#F1EE0D"/>
</linearGradient>
<linearGradient id="paint5_linear_0_2" x1="609.55" y1="-146.293" x2="225.125" y2="-179.899" gradientUnits="userSpaceOnUse">
<stop stop-color="#0A0BC5"/>
<stop offset="0.535531" stop-color="#000283"/>
<stop offset="1" stop-color="#502189"/>
</linearGradient>
<radialGradient id="paint6_radial_0_2" cx="0" cy="0" r="1" gradientUnits="userSpaceOnUse" gradientTransform="translate(513.519 604.118) rotate(-27.2687) scale(258.055 284.112)">
<stop stop-color="#29EAF9"/>
<stop offset="1" stop-color="#4C6AE2"/>
</radialGradient>
<linearGradient id="paint7_linear_0_2" x1="456.538" y1="13.9858" x2="457.114" y2="586.786" gradientUnits="userSpaceOnUse">
<stop stop-color="#E03C91"/>
<stop offset="0.448864" stop-color="#E41575"/>
<stop offset="0.512346" stop-color="#5207AC"/>
<stop offset="0.895062" stop-color="#4C0386"/>
<stop offset="1" stop-color="#630A36"/>
</linearGradient>
<linearGradient id="paint8_linear_0_2" x1="456.538" y1="13.9858" x2="457.114" y2="586.786" gradientUnits="userSpaceOnUse">
<stop stop-color="#B90F79"/>
<stop offset="0.448864" stop-color="#E41575"/>
<stop offset="0.512346" stop-color="#5207AC"/>
<stop offset="0.895062" stop-color="#0F0067"/>
<stop offset="1" stop-color="#4C002B"/>
</linearGradient>
<linearGradient id="paint9_linear_0_2" x1="600.1" y1="146.3" x2="678.318" y2="158.106" gradientUnits="userSpaceOnUse">
<stop stop-color="#E03E93"/>
<stop offset="1" stop-color="#E41474"/>
</linearGradient>
<linearGradient id="paint10_linear_0_2" x1="736.25" y1="187.5" x2="763.056" y2="303.294" gradientUnits="userSpaceOnUse">
<stop/>
<stop offset="1" stop-color="#999F15"/>
</linearGradient>
<radialGradient id="paint11_radial_0_2" cx="0" cy="0" r="1" gradientUnits="userSpaceOnUse" gradientTransform="translate(951.741 475.094) rotate(18.0836) scale(136.364 71.2167)">
<stop stop-color="#D4C716"/>
<stop offset="1" stop-color="#F1EE0D"/>
</radialGradient>
<linearGradient id="paint12_linear_0_2" x1="1000.02" y1="654.9" x2="1000.02" y2="763.871" gradientUnits="userSpaceOnUse">
<stop stop-color="#FE270B"/>
<stop offset="0.573604" stop-color="#F2CF35"/>
<stop offset="0.585227" stop-color="#3E4300"/>
<stop offset="0.67284" stop-color="#3E4300"/>
<stop offset="0.679164" stop-color="#F2CF35"/>
<stop offset="0.7862" stop-color="#F2CF35"/>
<stop offset="0.801708" stop-color="#3E4300"/>
<stop offset="0.876543" stop-color="#3E4300"/>
<stop offset="0.888889" stop-color="#F2CF35"/>
<stop offset="1" stop-color="#F2CF35"/>
</linearGradient>
<linearGradient id="paint13_linear_0_2" x1="511.7" y1="837" x2="613.523" y2="1073.08" gradientUnits="userSpaceOnUse">
<stop stop-color="#48C5E1"/>
<stop offset="1" stop-color="#3DF2FD"/>
</linearGradient>
<linearGradient id="paint14_linear_0_2" x1="1132.37" y1="203.818" x2="990.424" y2="324.125" gradientUnits="userSpaceOnUse">
<stop stop-color="#36FFFF"/>
<stop offset="0.289773" stop-color="#4CF0FC"/>
<stop offset="0.551136" stop-color="#5AF3F8"/>
<stop offset="0.795455" stop-color="#73E9F5"/>
<stop offset="1" stop-color="#3DF2FD"/>
</linearGradient>
<radialGradient id="paint15_radial_0_2" cx="0" cy="0" r="1" gradientUnits="userSpaceOnUse" gradientTransform="translate(1212.71 400.8) rotate(75.9085) scale(284.268 311.552)">
<stop stop-color="#2604A3"/>
<stop offset="0.142045" stop-color="#2604A3"/>
<stop offset="0.777778" stop-color="#7D8997"/>
<stop offset="1" stop-color="#BB52A4"/>
</radialGradient>
<linearGradient id="paint16_linear_0_2" x1="99.4937" y1="457.633" x2="204.437" y2="692.759" gradientUnits="userSpaceOnUse">
<stop stop-color="#F356A3"/>
<stop offset="0.488636" stop-color="#DC647D"/>
<stop offset="1" stop-color="#F5795F"/>
</linearGradient>
<linearGradient id="paint17_linear_0_2" x1="217.432" y1="290.204" x2="288.592" y2="198.003" gradientUnits="userSpaceOnUse">
<stop stop-color="#0A0BC5"/>
<stop offset="0.46697" stop-color="#000283"/>
<stop offset="1" stop-color="#502189"/>
</linearGradient>
<linearGradient id="paint18_linear_0_2" x1="433.243" y1="-86.2629" x2="133.955" y2="240.106" gradientUnits="userSpaceOnUse">
<stop stop-color="#E117A1"/>
<stop offset="1" stop-color="#6D0AF1"/>
</linearGradient>
<linearGradient id="paint19_linear_0_2" x1="433.243" y1="-86.2629" x2="133.955" y2="240.106" gradientUnits="userSpaceOnUse">
<stop stop-color="#BE13B9"/>
<stop offset="1"/>
</linearGradient>
<radialGradient id="paint20_radial_0_2" cx="0" cy="0" r="1" gradientUnits="userSpaceOnUse" gradientTransform="translate(309.321 742.079) rotate(-40.1479) scale(227.745 246.089)">
<stop stop-color="#30FFF9"/>
<stop offset="0.518519" stop-color="#21E3F7"/>
<stop offset="0.790123" stop-color="#1AD6F6"/>
<stop offset="0.901235" stop-color="#17D0F5"/>
<stop offset="1" stop-color="#0FBEF5"/>
<stop offset="1" stop-color="#D3D3D3"/>
</radialGradient>
<radialGradient id="paint21_radial_0_2" cx="0" cy="0" r="1" gradientUnits="userSpaceOnUse" gradientTransform="translate(725.474 1063.1) rotate(90) scale(168.5 254.968)">
<stop stop-color="#9CFCFB"/>
<stop offset="0.320988" stop-color="#A5FAF9" stop-opacity="0.862745"/>
<stop offset="0.506173" stop-color="#AFF8F8" stop-opacity="0.72549"/>
<stop offset="0.722222" stop-color="#C1F6F6" stop-opacity="0.47451"/>
<stop offset="1" stop-color="white" stop-opacity="0.01"/>
</radialGradient>
<linearGradient id="paint22_linear_0_2" x1="878.988" y1="811.198" x2="603.99" y2="955.209" gradientUnits="userSpaceOnUse">
<stop stop-color="#0A0BC5"/>
<stop offset="0.535531" stop-color="#000283"/>
<stop offset="1" stop-color="#502189"/>
</linearGradient>
<linearGradient id="paint23_linear_0_2" x1="572.212" y1="982.734" x2="867.662" y2="1114.9" gradientUnits="userSpaceOnUse">
<stop stop-color="#E63415"/>
<stop offset="0.608628" stop-color="#EB5C31"/>
<stop offset="0.699444" stop-color="#DC1A3F"/>
<stop offset="1" stop-color="#CE0A38"/>
</linearGradient>
<linearGradient id="paint24_linear_0_2" x1="779.844" y1="1275.63" x2="987.014" y2="940.774" gradientUnits="userSpaceOnUse">
<stop stop-color="#E87925"/>
<stop offset="0.530864" stop-color="#DC571A" stop-opacity="0.498039"/>
<stop offset="1" stop-color="#CE0A38" stop-opacity="0.01"/>
</linearGradient>
<radialGradient id="paint25_radial_0_2" cx="0" cy="0" r="1" gradientUnits="userSpaceOnUse" gradientTransform="translate(926.806 1031) rotate(-71.8918) scale(134.144 152.271)">
<stop stop-color="white"/>
<stop offset="1" stop-color="#808080"/>
</radialGradient>
<linearGradient id="paint26_linear_0_2" x1="1272.78" y1="952.724" x2="1337.39" y2="788.999" gradientUnits="userSpaceOnUse">
<stop stop-color="#E6152A"/>
<stop offset="0.783951" stop-color="#DC1A3F"/>
<stop offset="1" stop-color="#CE0A38"/>
</linearGradient>
<linearGradient id="paint27_linear_0_2" x1="31.5105" y1="974.332" x2="31.2468" y2="1080.97" gradientUnits="userSpaceOnUse">
<stop stop-color="#0A0BC5"/>
<stop offset="0.535531" stop-color="#000283"/>
<stop offset="1" stop-color="#502189"/>
</linearGradient>
<radialGradient id="paint28_radial_0_2" cx="0" cy="0" r="1" gradientUnits="userSpaceOnUse" gradientTransform="translate(474.732 910.035) rotate(-153.429) scale(29.1396 6.9207)">
<stop/>
<stop offset="0.320988" stop-color="#414546" stop-opacity="0.858824"/>
<stop offset="0.506173" stop-color="#384343" stop-opacity="0.729412"/>
<stop offset="0.722222" stop-color="#426464" stop-opacity="0.470588"/>
<stop offset="1" stop-color="#9AE9E9" stop-opacity="0.01"/>
</radialGradient>
<linearGradient id="paint29_linear_0_2" x1="-33.6511" y1="890.972" x2="94.8958" y2="912.082" gradientUnits="userSpaceOnUse">
<stop stop-color="#24195B"/>
<stop offset="1" stop-color="#77269F"/>
</linearGradient>
<linearGradient id="paint30_linear_0_2" x1="515.642" y1="898.397" x2="629.741" y2="723.075" gradientUnits="userSpaceOnUse">
<stop stop-color="#A445B2"/>
<stop offset="0.27342" stop-color="#D41872"/>
<stop offset="0.858025" stop-color="#E30F6D"/>
<stop offset="1" stop-color="#FF0066"/>
</linearGradient>
<radialGradient id="paint31_radial_0_2" cx="0" cy="0" r="1" gradientUnits="userSpaceOnUse" gradientTransform="translate(63.3099 963.492) rotate(178.659) scale(47.9513 63.8983)">
<stop stop-color="#FF0000" stop-opacity="0.498039"/>
<stop offset="0.104938" stop-color="#D13E3E" stop-opacity="0.282353"/>
<stop offset="0.265432" stop-color="#BF5858" stop-opacity="0.196078"/>
<stop offset="0.555556" stop-color="#B16C6C" stop-opacity="0.133333"/>
<stop offset="1" stop-color="#959595" stop-opacity="0.01"/>
</radialGradient>
<linearGradient id="paint32_linear_0_2" x1="7.62939e-06" y1="569.629" x2="7.62939e-06" y2="721.5" gradientUnits="userSpaceOnUse">
<stop stop-color="#FDF24B"/>
<stop offset="0.388889" stop-color="#C8BA59"/>
<stop offset="0.481481" stop-color="#A4C10D"/>
<stop offset="0.598765" stop-color="#EFE687"/>
<stop offset="0.732955" stop-color="#F0E498"/>
<stop offset="1" stop-color="#E8FE99"/>
</linearGradient>
<radialGradient id="paint33_radial_0_2" cx="0" cy="0" r="1" gradientUnits="userSpaceOnUse" gradientTransform="translate(69.1 1044.16) rotate(90) scale(84.4012 8.49193)">
<stop stop-color="white" stop-opacity="0.231373"/>
<stop offset="1" stop-color="#D3D3D3" stop-opacity="0.01"/>
</radialGradient>
<clipPath id="clip0_0_2">
<rect width="1280" height="1280" fill="white"/>
</clipPath>
</defs>
</svg>
